<svg xmlns="http://www.w3.org/2000/svg" viewBox="0 0 277.15 178.44"><defs><style>.cls-1{fill:#51b783;}.cls-10,.cls-11,.cls-12,.cls-18,.cls-2,.cls-3,.cls-9{fill:#f2edda;}.cls-3{font-size:9px;letter-spacing:-0.02em;}.cls-12,.cls-3{font-family:StyreneALC-Black, Styrene A LC;font-weight:800;}.cls-4{letter-spacing:0.02em;}.cls-5{letter-spacing:0em;}.cls-6{letter-spacing:0.02em;}.cls-7{letter-spacing:0.01em;}.cls-8{letter-spacing:0.01em;}.cls-9{font-size:34.81px;stroke-width:2.91px;}.cls-10,.cls-11,.cls-17,.cls-9{stroke:#f2edda;stroke-miterlimit:10;}.cls-10,.cls-9{font-family:StyreneALC-Light, Styrene A LC;font-weight:300;}.cls-10{font-size:11.93px;stroke-width:0.72px;letter-spacing:0.01em;}.cls-11{stroke-width:1.44px;}.cls-12{font-size:7px;letter-spacing:0.02em;}.cls-13{letter-spacing:0.01em;}.cls-14{letter-spacing:0.02em;}.cls-15{letter-spacing:-0.01em;}.cls-16{letter-spacing:0.03em;}.cls-17{fill:none;}.cls-18{font-size:8px;font-family:StyreneALC-Regular, Styrene A LC;}.cls-19{letter-spacing:0.01em;}.cls-20{letter-spacing:-0.01em;}.cls-21{letter-spacing:0.02em;}.cls-22{letter-spacing:0.01em;}.cls-23{letter-spacing:-0.01em;}.cls-24{letter-spacing:0.01em;}</style></defs><g id="Слой_2" data-name="Слой 2"><g id="карта"><path class="cls-1" d="M265.24,2.92H189.6l-4.3,5.16A10.92,10.92,0,0,1,176.92,12H102.07a11,11,0,0,1-8.38-3.92l-4.3-5.16H13.75A10.77,10.77,0,0,0,3,13.69V166.77a10.77,10.77,0,0,0,10.77,10.77h76l3.92-4.7a11,11,0,0,1,8.38-3.92h74.85a10.92,10.92,0,0,1,8.38,3.92l3.92,4.7h76A10.77,10.77,0,0,0,276,166.77V13.69A10.77,10.77,0,0,0,265.24,2.92Z"/><polygon class="cls-2" points="239.96 31.59 237.72 31.59 237.72 29.36 236.02 29.36 236.02 35.25 237.72 35.25 237.72 32.73 239.96 32.73 239.96 35.25 241.66 35.25 241.66 29.36 239.96 29.36 239.96 31.59"/><polygon class="cls-2" points="244.36 33.36 244.34 33.36 244.38 32.3 244.38 29.36 242.68 29.36 242.68 35.25 244.48 35.25 246.93 31.25 246.96 31.25 246.92 32.35 246.92 35.25 248.62 35.25 248.62 29.36 246.74 29.36 244.36 33.36"/><path class="cls-2" d="M222.4,32.32a1.45,1.45,0,1,1-2.87,0v0a1.45,1.45,0,1,1,2.87,0Zm-1-3.07a2.14,2.14,0,0,0-1.83,1v-.85h-1.67V37h1.67V34.48a2.25,2.25,0,0,0,1.83.88,2.76,2.76,0,0,0,2.68-3v0a2.77,2.77,0,0,0-2.68-3"/><path class="cls-2" d="M233.7,32.34a1.51,1.51,0,0,1-1.52,1.6,1.57,1.57,0,0,1-1.55-1.62v0a1.51,1.51,0,0,1,1.53-1.6,1.56,1.56,0,0,1,1.54,1.63Zm-1.52-3.09A3.09,3.09,0,0,0,229,32.32v0a3.18,3.18,0,0,0,6.36,0v0a3.06,3.06,0,0,0-3.17-3"/><path class="cls-2" d="M260,32.32a1.45,1.45,0,1,1-2.87,0v0a1.45,1.45,0,1,1,2.87,0Zm0-3v.77a2.29,2.29,0,0,0-1.84-.88,2.76,2.76,0,0,0-2.67,3v0a2.77,2.77,0,0,0,2.67,3,2.18,2.18,0,0,0,1.84-1v.85h1.66V29.36Z"/><path class="cls-2" d="M215.22,32.32a1.44,1.44,0,1,1-2.86,0v0a1.44,1.44,0,1,1,2.86,0Zm0-3v.77a2.25,2.25,0,0,0-1.83-.88,2.76,2.76,0,0,0-2.68,3v0a2.77,2.77,0,0,0,2.68,3,2.14,2.14,0,0,0,1.83-1v.85h1.67V29.36Z"/><polygon class="cls-2" points="229.16 29.36 224 29.36 224 30.79 225.75 30.79 225.75 35.25 227.41 35.25 227.41 30.79 229.16 30.79 229.16 29.36"/><polygon class="cls-2" points="255.5 29.36 253.62 29.36 252.05 31.59 251.34 31.59 251.34 29.36 249.64 29.36 249.64 35.25 251.34 35.25 251.34 32.72 251.94 32.72 253.71 35.25 255.81 35.25 253.42 32.15 255.5 29.36"/><text class="cls-3" transform="translate(17.44 34.79)">К<tspan class="cls-4" x="7.3" y="0">а</tspan><tspan class="cls-5" x="13.65" y="0">р</tspan><tspan class="cls-6" x="19.93" y="0">та непос</tspan><tspan class="cls-5" x="65" y="0">т</tspan><tspan class="cls-7" x="70.67" y="0">о</tspan><tspan class="cls-6" x="76.75" y="0">янно</tspan><tspan class="cls-8" x="101.95" y="0">г</tspan><tspan class="cls-6" x="106.71" y="0">о клиента</tspan></text><text class="cls-9" transform="translate(17.44 73.63)">100 000</text><text class="cls-10" transform="translate(167.27 56.2)">P</text><line class="cls-11" x1="166.91" y1="54.33" x2="174.65" y2="54.33"/><line class="cls-11" x1="166.91" y1="52.02" x2="174.65" y2="52.02"/><text class="cls-12" transform="translate(17.44 90.62)">НА <tspan class="cls-13" x="14.09" y="0">О</tspan><tspan class="cls-14" x="20.15" y="0">ДНУ </tspan><tspan class="cls-15" x="40.26" y="0">У</tspan><tspan class="cls-14" x="46.01" y="0">СЛУ</tspan><tspan class="cls-16" x="63.72" y="0">Г</tspan><tspan x="69.14" y="0">У НА ВЫБОР</tspan></text><line class="cls-17" x1="199.28" x2="199.28" y2="178.44"/><line class="cls-17" y1="103.26" x2="277.15" y2="103.26"/><path class="cls-17" d="M199.22,90.05a13.08,13.08,0,1,0-13.08,13.08h13.08v-13h0Z"/><path class="cls-17" d="M199.36,90.05a13.08,13.08,0,1,1,13.08,13.08H199.36v-13h0Z"/><line class="cls-17" x1="199.37" y1="103.08" x2="215.85" y2="119.57"/><line class="cls-17" x1="199.34" y1="103.08" x2="182.85" y2="119.57"/><rect class="cls-2" x="104.1" y="140.64" width="3.23" height="3.23" transform="translate(131.55 -33.08) rotate(45)"/><polygon class="cls-2" points="103.67 121 102.29 120.1 101.54 121.56 101.2 119.95 99.63 120.46 100.53 119.08 99.06 118.33 100.67 117.99 100.17 116.42 101.55 117.32 102.3 115.85 102.64 117.46 104.2 116.96 103.31 118.34 104.77 119.09 103.16 119.43 103.67 121"/><polygon class="cls-2" points="61.65 144.64 60.84 143.53 60.89 144.9 60.45 143.61 60.09 144.93 60.05 143.56 59.32 144.73 59.68 143.4 58.65 144.3 59.38 143.14 58.12 143.69 59.16 142.8 57.8 142.96 59.06 142.42 57.71 142.17 59.08 142.02 57.86 141.38 59.21 141.64 58.23 140.67 59.44 141.32 58.8 140.11 59.77 141.08 59.51 139.73 60.14 140.95 60.29 139.59 60.54 140.93 61.09 139.67 60.93 141.04 61.82 139.99 61.27 141.25 62.43 140.51 61.53 141.55 62.85 141.19 61.69 141.92 63.06 141.96 61.73 142.31 63.03 142.76 61.66 142.71 62.77 143.52 61.47 143.06 62.29 144.16 61.19 143.34 61.65 144.64"/><text class="cls-18" transform="translate(17.44 120.77)"><tspan class="cls-19">бренд-пла</tspan><tspan class="cls-20" x="45.58" y="0">т</tspan><tspan class="cls-19" x="49.91" y="0" xml:space="preserve">форма     айденти</tspan><tspan x="125.6" y="0">к</tspan><tspan class="cls-19" x="130.33" y="0" xml:space="preserve">а     </tspan><tspan x="0" y="11.86">к</tspan><tspan class="cls-19" x="4.73" y="11.86">оммуни</tspan><tspan x="38.48" y="11.86">к</tspan><tspan class="cls-19" x="43.21" y="11.86">а</tspan><tspan class="cls-21" x="48.56" y="11.86">ц</tspan><tspan class="cls-19" x="53.85" y="11.86">ионная </tspan><tspan x="87.34" y="11.86">с</tspan><tspan class="cls-22" x="92.09" y="11.86">тра</tspan><tspan class="cls-23" x="107.33" y="11.86">т</tspan><tspan class="cls-19" x="111.66" y="11.86" xml:space="preserve">егия      </tspan><tspan class="cls-19"><tspan x="0" y="23.72" xml:space="preserve">реклама     ло</tspan><tspan class="cls-20" x="58.83" y="23.72">го</tspan><tspan x="67.66" y="23.72" xml:space="preserve">тип     нейминг     </tspan><tspan x="0" y="35.58">бренд</tspan><tspan class="cls-24" x="25.94" y="35.58">б</tspan><tspan class="cls-22" x="31.11" y="35.58">ук</tspan></tspan></text></g></g></svg>