<svg xmlns="http://www.w3.org/2000/svg" viewBox="0 0 1168.3 742.45"><defs><style>.cls-1{fill:#51b783;}.cls-10,.cls-11,.cls-16,.cls-2,.cls-3,.cls-8,.cls-9{fill:#f2edda;}.cls-3{font-size:35px;letter-spacing:-0.02em;}.cls-11,.cls-3{font-family:StyreneALC-Black, Styrene A LC;font-weight:800;}.cls-4{letter-spacing:0.02em;}.cls-5{letter-spacing:0.01em;}.cls-6{letter-spacing:0em;}.cls-7{letter-spacing:0.02em;}.cls-8{font-size:135px;stroke-width:11.27px;}.cls-10,.cls-15,.cls-8,.cls-9{stroke:#f2edda;stroke-miterlimit:10;}.cls-8,.cls-9{font-family:StyreneALC-Light, Styrene A LC;font-weight:300;}.cls-9{font-size:46.27px;stroke-width:2.79px;letter-spacing:0.01em;}.cls-10{stroke-width:5.59px;}.cls-11{font-size:25px;letter-spacing:0.02em;}.cls-12{letter-spacing:0.02em;}.cls-13{letter-spacing:-0.01em;}.cls-14{letter-spacing:0.03em;}.cls-15{fill:none;stroke-width:3px;}.cls-16{font-size:30px;font-family:StyreneALC-Regular, Styrene A LC;}.cls-17{letter-spacing:0.01em;}.cls-18{letter-spacing:-0.01em;}.cls-19{letter-spacing:0.01em;}.cls-20{letter-spacing:0.01em;}.cls-21{letter-spacing:-0.01em;}.cls-22{letter-spacing:0em;}</style></defs><g id="Слой_2" data-name="Слой 2"><g id="карта"><path class="cls-1" d="M1118.1,2.69H799.24L781.11,24.42A46,46,0,0,1,745.78,41H430.27a46,46,0,0,1-35.33-16.54L376.82,2.69H58A45.39,45.39,0,0,0,12.57,48.08V693.36A45.39,45.39,0,0,0,58,738.75H378.43L394.94,719a46,46,0,0,1,35.33-16.53H745.78A46,46,0,0,1,781.11,719l16.51,19.8H1118.1a45.39,45.39,0,0,0,45.39-45.39V48.08A45.39,45.39,0,0,0,1118.1,2.69Z"/><polygon class="cls-2" points="1015.15 137.22 1006.51 137.22 1006.51 128.65 999.98 128.65 999.98 151.31 1006.51 151.31 1006.51 141.6 1015.15 141.6 1015.15 151.31 1021.68 151.31 1021.68 128.65 1015.15 128.65 1015.15 137.22"/><polygon class="cls-2" points="1032.06 144.03 1031.97 144.03 1032.15 139.96 1032.15 128.65 1025.62 128.65 1025.62 151.31 1032.54 151.31 1041.96 135.94 1042.09 135.94 1041.91 140.18 1041.91 151.31 1048.45 151.31 1048.45 128.65 1041.21 128.65 1032.06 144.03"/><path class="cls-2" d="M947.54,140c0,3.8-2.54,6.25-5.54,6.25s-5.48-2.49-5.48-6.25v-.09c0-3.76,2.49-6.26,5.48-6.26s5.54,2.5,5.54,6.26Zm-3.89-11.8a8.3,8.3,0,0,0-7,3.68v-3.26h-6.42v29.43h6.42v-9.73a8.68,8.68,0,0,0,7,3.39C949,151.74,954,147.59,954,140v-.09c0-7.57-5-11.71-10.31-11.71"/><path class="cls-2" d="M991.05,140.11c0,3.34-2.19,6.18-5.87,6.18a6,6,0,0,1-5.95-6.26v-.09c0-3.34,2.2-6.17,5.87-6.17a6,6,0,0,1,5.95,6.26Zm-5.87-11.88c-7,0-12.28,5.29-12.28,11.8v.08c0,6.51,5.19,11.71,12.2,11.71s12.29-5.28,12.29-11.79v-.09c0-6.51-5.2-11.71-12.21-11.71"/><path class="cls-2" d="M1092.37,140c0,3.76-2.49,6.26-5.49,6.26s-5.53-2.5-5.53-6.26v-.09c0-3.8,2.54-6.26,5.53-6.26s5.49,2.5,5.49,6.26Zm-.08-11.38v3a8.68,8.68,0,0,0-7-3.38c-5.37,0-10.31,4.14-10.31,11.71V140c0,7.57,5,11.71,10.31,11.71a8.32,8.32,0,0,0,7-3.68v3.25h6.42V128.65Z"/><path class="cls-2" d="M919.93,140c0,3.76-2.5,6.26-5.49,6.26s-5.54-2.5-5.54-6.26v-.09c0-3.8,2.54-6.26,5.54-6.26s5.49,2.5,5.49,6.26Zm-.09-11.38v3a8.68,8.68,0,0,0-7.05-3.38c-5.36,0-10.3,4.14-10.3,11.71V140c0,7.57,5,11.71,10.3,11.71a8.31,8.31,0,0,0,7.05-3.68v3.25h6.42V128.65Z"/><polygon class="cls-2" points="973.57 128.65 953.7 128.65 953.7 134.15 960.42 134.15 960.42 151.31 966.84 151.31 966.84 134.15 973.57 134.15 973.57 128.65"/><polygon class="cls-2" points="1074.94 128.65 1067.71 128.65 1061.66 137.22 1058.93 137.22 1058.93 128.65 1052.4 128.65 1052.4 151.31 1058.93 151.31 1058.93 141.6 1061.26 141.6 1068.06 151.31 1076.13 151.31 1066.93 139.37 1074.94 128.65"/><text class="cls-3" transform="translate(86.55 147.99)">К<tspan class="cls-4" x="28.39" y="0">а</tspan><tspan class="cls-5" x="53.09" y="0">р</tspan><tspan class="cls-4" x="77.49" y="0">та непос</tspan><tspan class="cls-6" x="252.77" y="0">т</tspan><tspan class="cls-7" x="274.85" y="0">о</tspan><tspan class="cls-4" x="298.48" y="0">янно</tspan><tspan class="cls-5" x="396.48" y="0">г</tspan><tspan class="cls-4" x="414.99" y="0">о клиента</tspan></text><text class="cls-8" transform="translate(86.55 307.17)">100 000</text><text class="cls-9" transform="translate(667.55 239.6)">P</text><line class="cls-10" x1="666.16" y1="232.33" x2="696.16" y2="232.33"/><line class="cls-10" x1="666.16" y1="223.37" x2="696.16" y2="223.37"/><text class="cls-11" transform="translate(86.55 375.41)">НА <tspan class="cls-12" x="50.32" y="0">О</tspan><tspan x="71.95" y="0">ДНУ </tspan><tspan class="cls-13" x="143.8" y="0">У</tspan><tspan x="164.32" y="0">СЛУ</tspan><tspan class="cls-14" x="227.57" y="0">Г</tspan><tspan x="246.92" y="0">У НА ВЫБОР</tspan></text><line class="cls-15" x1="840.02" x2="840.02" y2="742.45"/><line class="cls-15" y1="425.51" x2="1168.3" y2="425.51"/><path class="cls-15" d="M839.79,369.84A55.15,55.15,0,1,0,784.65,425h55.14V370.05h0Z"/><path class="cls-15" d="M840.37,369.84A55.15,55.15,0,1,1,895.51,425H840.37V370.05h0Z"/><line class="cls-15" x1="840.4" y1="424.76" x2="909.9" y2="494.26"/><line class="cls-15" x1="840.27" y1="424.76" x2="770.78" y2="494.26"/><rect class="cls-2" x="228.35" y="577.77" width="13.61" height="13.61" transform="translate(482.24 4.94) rotate(45)"/><polygon class="cls-2" points="410.39 494.62 404.57 490.84 401.41 497.01 399.97 490.23 393.37 492.35 397.15 486.54 390.98 483.37 397.76 481.93 395.64 475.33 401.45 479.11 404.62 472.94 406.06 479.72 412.65 477.6 408.88 483.41 415.05 486.58 408.26 488.02 410.39 494.62"/><circle class="cls-2" cx="414.62" cy="584.58" r="8.74"/><polygon class="cls-2" points="254.66 545.5 251.24 540.84 251.47 546.62 249.58 541.16 248.11 546.75 247.91 540.97 244.85 545.87 246.36 540.29 241.99 544.08 245.08 539.2 239.79 541.53 244.18 537.77 238.44 538.44 243.75 536.14 238.06 535.09 243.81 534.46 238.69 531.78 244.36 532.87 240.26 528.79 245.36 531.51 242.64 526.41 246.72 530.51 245.62 524.83 248.31 529.95 248.93 524.2 249.99 529.88 252.28 524.58 251.62 530.32 255.38 525.92 253.05 531.22 257.93 528.12 254.15 532.49 259.73 530.98 254.83 534.04 260.6 534.23 255.02 535.71 260.48 537.6 254.7 537.37 259.37 540.78 253.92 538.86 257.37 543.5 252.73 540.05 254.66 545.5"/><text class="cls-16" transform="translate(86.55 492.38)"><tspan class="cls-17">бренд-пла</tspan><tspan class="cls-18" x="170.94" y="0">т</tspan><tspan class="cls-17" x="187.17" y="0" xml:space="preserve">форма     айденти</tspan><tspan x="471" y="0">к</tspan><tspan class="cls-19" x="488.73" y="0" xml:space="preserve">а     </tspan><tspan class="cls-17" x="0" y="50" xml:space="preserve">реклама     </tspan><tspan x="182.25" y="50">к</tspan><tspan class="cls-19" x="199.98" y="50">оммуни</tspan><tspan x="326.55" y="50">к</tspan><tspan class="cls-17" x="344.28" y="50">а</tspan><tspan class="cls-20" x="364.35" y="50">ц</tspan><tspan class="cls-17" x="384.21" y="50">ионная </tspan><tspan x="509.79" y="50">с</tspan><tspan class="cls-17" x="527.6" y="50">тра</tspan><tspan class="cls-21" x="584.75" y="50">т</tspan><tspan class="cls-17" x="600.98" y="50" xml:space="preserve">егия      </tspan><tspan class="cls-17"><tspan x="0" y="100">ло</tspan><tspan class="cls-18" x="38.34" y="100">го</tspan><tspan x="71.46" y="100" xml:space="preserve">тип     нейминг     бренд</tspan><tspan class="cls-22" x="445.47" y="100">б</tspan><tspan x="464.88" y="100">ук</tspan></tspan></text></g></g></svg>