<svg xmlns="http://www.w3.org/2000/svg" viewBox="0 0 336.95 85.31"><defs><style>.cls-1{fill:#192ad5;}</style></defs><g id="Слой_2" data-name="Слой 2"><g id="логотип"><path class="cls-1" d="M332.63,80.4a2.91,2.91,0,0,1,0-5.81,2.91,2.91,0,0,1,0,5.81m0-7.2A4.3,4.3,0,1,0,337,77.49a4.23,4.23,0,0,0-4.32-4.29m-9.37,4.88c.67,0,1.46.21,1.46,1s-.49,1.17-1.47,1.17h-2.84V78.08Zm-.05-3.36c.63,0,1.33.22,1.33,1s-.61,1.06-1.33,1.06h-2.8v-2Zm-4.31,6.87h4.33c1.51,0,3.07-.69,3.07-2.42a1.68,1.68,0,0,0-.45-1.23,2.57,2.57,0,0,0-1-.58A1.79,1.79,0,0,0,326,75.55c0-1.6-1.37-2.15-2.82-2.15H318.9Zm-6.88,0h1.5V74.76h3.32V73.4H308.7v1.36H312ZM307.52,76a3.78,3.78,0,0,0-3.92-2.75,4.3,4.3,0,0,0,0,8.59,4.07,4.07,0,0,0,3-1.16,3.53,3.53,0,0,0,.88-1.59H306a2.59,2.59,0,0,1-2.4,1.36,2.92,2.92,0,0,1,0-5.81A2.55,2.55,0,0,1,306,76Zm-14,5.64H295V74.76h3.31V73.4H290.2v1.36h3.32Zm-13,0H282V78.11h4.59v3.48h1.51V73.4h-1.51v3.35H282V73.4h-1.51Zm-6.6-7.1a2.5,2.5,0,0,1,2.5,1.93h-5a2.45,2.45,0,0,1,2.54-1.93m0-1.29a4.1,4.1,0,0,0-4.17,4.29,4.21,4.21,0,0,0,4.32,4.3,4.57,4.57,0,0,0,1.75-.3A3.43,3.43,0,0,0,278,79.25h-1.5a2.75,2.75,0,0,1-2.43,1.15,2.64,2.64,0,0,1-1.1-.22,2.82,2.82,0,0,1-1.69-2.5h6.82c0-2.46-1.55-4.48-4.18-4.48m-11.38,8.39h1.51V74.76h4.59V73.4h-6.1ZM258,77.49a2.71,2.71,0,0,1-2.66,2.91,2.65,2.65,0,0,1-2-.85,3,3,0,0,1-.75-2.06,2.7,2.7,0,1,1,5.38,0m0,4.1h1.51V73.4H258v1.36a2.52,2.52,0,0,0-.28-.43,3.37,3.37,0,0,0-2.62-1.13,4.31,4.31,0,0,0,0,8.59,3.14,3.14,0,0,0,2.9-1.61Zm-17.3-7.1a2.5,2.5,0,0,1,2.5,1.93h-5a2.46,2.46,0,0,1,2.54-1.93m0-1.29a4.1,4.1,0,0,0-4.16,4.29,4.2,4.2,0,0,0,4.31,4.3,4.63,4.63,0,0,0,1.76-.3,3.42,3.42,0,0,0,2.17-2.24h-1.49a2.78,2.78,0,0,1-2.44,1.15,2.67,2.67,0,0,1-1.1-.22,2.82,2.82,0,0,1-1.69-2.5h6.82c0-2.46-1.54-4.48-4.18-4.48m-10.37,7.2a2.91,2.91,0,0,1,0-5.81,2.91,2.91,0,0,1,0,5.81m0-7.2a4.3,4.3,0,1,0,4.31,4.29,4.23,4.23,0,0,0-4.31-4.29m-14.43,8.39h1.51V78.11H222v3.48h1.5V73.4H222v3.35h-4.6V73.4h-1.51Zm-5.67-3.51c.66,0,1.46.21,1.46,1s-.5,1.17-1.48,1.17h-2.84V78.08Zm-.05-3.36c.63,0,1.33.22,1.33,1s-.62,1.06-1.33,1.06h-2.81v-2Zm-4.32,6.87h4.33c1.51,0,3.07-.69,3.07-2.42a1.68,1.68,0,0,0-.45-1.23,2.51,2.51,0,0,0-1-.58A1.8,1.8,0,0,0,213,75.55c0-1.6-1.38-2.15-2.82-2.15h-4.32Zm-10.89,0h1.5l4.77-6.22v6.22h1.5V73.4h-1.5l-4.77,6.17V73.4h-1.5Zm-6.89,0h1.51V74.76h3.32V73.4h-8.15v1.36H188Zm-6.85-4.1a2.71,2.71,0,0,1-2.66,2.91,2.65,2.65,0,0,1-2-.85,3,3,0,0,1-.75-2.06,2.71,2.71,0,0,1,2.72-2.9,2.68,2.68,0,0,1,2.66,2.9m0,4.1h1.5V73.4h-1.5v1.36a2.52,2.52,0,0,0-.28-.43,3.39,3.39,0,0,0-2.63-1.13,4.31,4.31,0,0,0,0,8.59,3.16,3.16,0,0,0,2.91-1.61Zm-12.91-7.1a2.5,2.5,0,0,1,2.5,1.93h-5a2.46,2.46,0,0,1,2.54-1.93m0-1.29a4.1,4.1,0,0,0-4.16,4.29,4.2,4.2,0,0,0,4.31,4.3,4.63,4.63,0,0,0,1.76-.3,3.42,3.42,0,0,0,2.17-2.24h-1.49a2.77,2.77,0,0,1-2.44,1.15,2.67,2.67,0,0,1-1.1-.22,2.82,2.82,0,0,1-1.69-2.5h6.82c0-2.46-1.54-4.48-4.18-4.48m-13.12,4.29a2.78,2.78,0,0,1,4.76-2.07,3.14,3.14,0,0,1,.75,2.07,2.75,2.75,0,0,1-2.76,2.91,2.66,2.66,0,0,1-2-.85,2.93,2.93,0,0,1-.76-2.06m0,2.78a1.85,1.85,0,0,0,.3.39,3.63,3.63,0,0,0,2.69,1.13,4.3,4.3,0,0,0,0-8.59,3.36,3.36,0,0,0-3,1.61V73.4h-1.49V85.31h1.49Zm-11.33,1.32h1.46V77.84l4.55,3.75H152l-5.06-4.26,4.84-3.93h-2.16L145.28,77V73.4h-1.46Zm-15.26,0h1.51l4.76-6.22v6.22h1.51V73.4h-1.51l-4.76,6.17V73.4h-1.51Zm-11-7.1a2.52,2.52,0,0,1,2.51,1.93h-5a2.46,2.46,0,0,1,2.54-1.93m0-1.29a4.1,4.1,0,0,0-4.16,4.29,4.2,4.2,0,0,0,4.31,4.3,4.63,4.63,0,0,0,1.76-.3,3.42,3.42,0,0,0,2.17-2.24h-1.49a2.77,2.77,0,0,1-2.44,1.15,2.59,2.59,0,0,1-1.09-.22,2.82,2.82,0,0,1-1.7-2.5h6.82c0-2.46-1.54-4.48-4.18-4.48m-10.37,7.2a2.91,2.91,0,0,1,0-5.81,2.91,2.91,0,0,1,0,5.81m0-7.2a4.3,4.3,0,1,0,4.32,4.29,4.23,4.23,0,0,0-4.32-4.29m-9.37,4.88c.67,0,1.46.21,1.46,1s-.5,1.17-1.47,1.17H95V78.08Zm0-3.36c.63,0,1.33.22,1.33,1s-.61,1.06-1.33,1.06H95v-2Zm-4.31,6.87h4.33c1.51,0,3.07-.69,3.07-2.42a1.68,1.68,0,0,0-.45-1.23,2.57,2.57,0,0,0-1-.58,1.79,1.79,0,0,0,1.22-1.81c0-1.6-1.37-2.15-2.82-2.15H93.46ZM86.64,80.4a2.91,2.91,0,1,1,2.76-2.91,2.76,2.76,0,0,1-2.76,2.91m0-7.2A4.3,4.3,0,1,0,91,77.49a4.23,4.23,0,0,0-4.31-4.29M75.11,81.59h1.51V74.76h4.6V73.4H75.11Zm-10.7,0h1.51V78.11h4.6v3.48H72V73.4H70.52v3.35h-4.6V73.4H64.41Zm-10.9,0H55l4.76-6.22v6.22h1.51V73.4H59.78L55,79.57V73.4H53.51ZM43.08,84.06V81.59h7.2v2.47h1.34V80.23H50.13V73.4H44.06l-.35,3.07a8.8,8.8,0,0,1-1,3.76h-1v3.83Zm5.54-3.83H44.17a4.09,4.09,0,0,0,.52-1.37c.11-.57.25-1.33.36-2.28l.22-1.82h3.35ZM32.31,81.59h1.51V78.11h4.6v3.48h1.51V73.4H38.42v3.35h-4.6V73.4H32.31Zm-6.6-7.1a2.5,2.5,0,0,1,2.5,1.93h-5a2.46,2.46,0,0,1,2.54-1.93m0-1.29a4.1,4.1,0,0,0-4.16,4.29,4.2,4.2,0,0,0,4.31,4.3,4.63,4.63,0,0,0,1.76-.3,3.42,3.42,0,0,0,2.17-2.24H28.3a2.77,2.77,0,0,1-2.44,1.15,2.67,2.67,0,0,1-1.1-.22,2.82,2.82,0,0,1-1.69-2.5h6.82c0-2.46-1.54-4.48-4.18-4.48M12.59,77.49a2.78,2.78,0,0,1,4.76-2.07,3.14,3.14,0,0,1,.75,2.07,2.75,2.75,0,0,1-2.76,2.91,2.66,2.66,0,0,1-2-.85,2.93,2.93,0,0,1-.76-2.06m0,2.78a1.85,1.85,0,0,0,.3.39,3.63,3.63,0,0,0,2.69,1.13,4.3,4.3,0,0,0,0-8.59,3.36,3.36,0,0,0-3,1.61V73.4H11.13V85.31h1.49Zm-8.31.13a2.74,2.74,0,1,1,0-5.48,2.74,2.74,0,1,1,0,5.48m.18-6.87a3.33,3.33,0,0,0-3,1.39c.18-2.2.79-3.15,3.15-3.6l3.28-.58V69.35l-3.31.58c-2.84.48-4.3,1.94-4.51,4.94,0,.29,0,.52,0,.73s0,.42,0,.6,0,.37,0,.55a5.06,5.06,0,0,0,0,.56c0,2.61,1.54,4.48,4.31,4.48a4,4,0,0,0,4.31-4.13,3.87,3.87,0,0,0-4.13-4.13"/><polygon class="cls-1" points="193.78 15.38 179.01 15.38 179.01 0.72 167.84 0.72 167.84 39.47 179.01 39.47 179.01 22.86 193.78 22.86 193.78 39.47 204.95 39.47 204.95 0.72 193.78 0.72 193.78 15.38"/><polygon class="cls-1" points="222.69 27.01 222.54 27.01 222.84 20.05 222.84 0.72 211.67 0.72 211.67 39.47 223.51 39.47 239.6 13.18 239.83 13.18 239.53 20.43 239.53 39.47 250.7 39.47 250.7 0.72 238.33 0.72 222.69 27.01"/><path class="cls-1" d="M78.19,20.17c0,6.5-4.33,10.7-9.45,10.7s-9.39-4.27-9.39-10.7V20c0-6.43,4.26-10.69,9.39-10.69S78.19,13.59,78.19,20ZM71.55,0a14.21,14.21,0,0,0-12,6.29V.73h-11V51h11V34.41a14.86,14.86,0,0,0,12,5.78c9.17,0,17.62-7.08,17.62-20V20c0-12.93-8.6-20-17.62-20"/><path class="cls-1" d="M152.58,20.31c0,5.71-3.75,10.56-10,10.56-6.06,0-10.18-5-10.18-10.7V20c0-5.71,3.76-10.56,10-10.56,6.06,0,10.17,5,10.17,10.7ZM142.55,0c-12.05,0-21,9-21,20.17v.14c0,11.13,8.88,20,20.87,20s21-9,21-20.17V20c0-11.13-8.88-20-20.86-20"/><path class="cls-1" d="M325.79,20.17c0,6.43-4.26,10.7-9.38,10.7S307,26.6,307,20.17V20c0-6.51,4.33-10.7,9.46-10.7s9.38,4.26,9.38,10.7ZM325.65.72V5.79A14.86,14.86,0,0,0,313.59,0C304.42,0,296,7.09,296,20v.14c0,12.94,8.59,20,17.61,20a14.19,14.19,0,0,0,12.06-6.29v5.57h11V.72Z"/><path class="cls-1" d="M31,20.17c0,6.43-4.26,10.7-9.38,10.7s-9.46-4.27-9.46-10.7V20c0-6.51,4.33-10.7,9.46-10.7S31,13.59,31,20ZM30.85.72V5.79A14.86,14.86,0,0,0,18.79,0C9.63,0,1.18,7.09,1.18,20v.14c0,12.94,8.59,20,17.61,20A14.19,14.19,0,0,0,30.85,33.9v5.57h11V.72Z"/><polygon class="cls-1" points="122.69 0.73 88.73 0.73 88.73 10.13 100.22 10.13 100.22 39.47 111.19 39.47 111.19 10.13 122.69 10.13 122.69 0.73"/><polygon class="cls-1" points="296 0.72 283.63 0.72 273.29 15.38 268.62 15.38 268.62 0.72 257.45 0.72 257.45 39.47 268.62 39.47 268.62 22.86 272.6 22.86 284.23 39.47 298.01 39.47 282.3 19.05 296 0.72"/></g></g></svg>